<svg width="17" height="17" viewBox="0 0 17 17" fill="none" xmlns="http://www.w3.org/2000/svg">
<path d="M8.33756 10.2242L7.78613 10.8584C8.10233 11.1333 8.57278 11.1333 8.88898 10.8584L8.33756 10.2242ZM4.36532 10.9488C4.81178 10.8221 5.07093 10.3573 4.94414 9.91088C4.81736 9.46441 4.35264 9.20527 3.90618 9.33205L4.36532 10.9488ZM12.7689 9.33205C12.3225 9.20527 11.8578 9.46441 11.731 9.91088C11.6042 10.3573 11.8633 10.8221 12.3098 10.9488L12.7689 9.33205ZM11.2321 4.54062C11.2321 4.94954 11.0698 5.465 10.7498 6.05633C10.4359 6.6364 10.0067 7.22305 9.5604 7.75672C9.1164 8.28759 8.66998 8.74879 8.33348 9.07798C8.16574 9.24207 8.02658 9.37212 7.93036 9.46027C7.88228 9.50432 7.84501 9.53783 7.82035 9.55981C7.80802 9.5708 7.79885 9.5789 7.79307 9.58399C7.79018 9.58653 7.78814 9.58832 7.78697 9.58934C7.78639 9.58985 7.78603 9.59017 7.78588 9.59029C7.78581 9.59035 7.7858 9.59037 7.78584 9.59033C7.78586 9.59031 7.78593 9.59025 7.78594 9.59024C7.78603 9.59017 7.78613 9.59008 8.33756 10.2242C8.88898 10.8584 8.88911 10.8582 8.88926 10.8581C8.88932 10.8581 8.88948 10.8579 8.88961 10.8578C8.88988 10.8576 8.89021 10.8573 8.89059 10.857C8.89135 10.8563 8.89234 10.8554 8.89355 10.8544C8.89598 10.8523 8.89929 10.8493 8.90347 10.8457C8.91182 10.8383 8.92362 10.8279 8.93865 10.8145C8.9687 10.7877 9.01167 10.7491 9.06572 10.6995C9.17375 10.6006 9.32639 10.4579 9.5088 10.2794C9.8726 9.92352 10.3599 9.42054 10.8496 8.83499C11.337 8.25223 11.8416 7.57022 12.228 6.85627C12.6083 6.15356 12.9129 5.34961 12.9129 4.54062H11.2321ZM8.33756 10.2242C8.88898 9.59008 8.88908 9.59017 8.88917 9.59024C8.88918 9.59025 8.88925 9.59031 8.88927 9.59033C8.88931 9.59037 8.8893 9.59035 8.88923 9.59029C8.88909 9.59017 8.88872 9.58985 8.88814 9.58934C8.88697 9.58832 8.88493 9.58653 8.88204 9.58399C8.87626 9.5789 8.86709 9.5708 8.85476 9.55981C8.8301 9.53783 8.79283 9.50432 8.74475 9.46027C8.64853 9.37212 8.50937 9.24207 8.34163 9.07798C8.00513 8.74879 7.55871 8.28759 7.11471 7.75672C6.66837 7.22305 6.2392 6.6364 5.92528 6.05633C5.60526 5.465 5.44298 4.94954 5.44298 4.54062H3.76225C3.76225 5.34961 4.06684 6.15356 4.44713 6.85627C4.8335 7.57022 5.33806 8.25223 5.82546 8.83499C6.3152 9.42054 6.80251 9.92352 7.16631 10.2794C7.34872 10.4579 7.50136 10.6006 7.60939 10.6995C7.66344 10.7491 7.70641 10.7877 7.73646 10.8145C7.75149 10.8279 7.76329 10.8383 7.77164 10.8457C7.77582 10.8493 7.77914 10.8523 7.78156 10.8544C7.78277 10.8554 7.78376 10.8563 7.78452 10.857C7.7849 10.8573 7.78523 10.8576 7.7855 10.8578C7.78563 10.8579 7.78579 10.8581 7.78585 10.8581C7.786 10.8582 7.78613 10.8584 8.33756 10.2242ZM5.44298 4.54062C5.44298 3.00414 6.72142 1.72723 8.33756 1.72723V0.0465099C5.82819 0.0465099 3.76225 2.04127 3.76225 4.54062H5.44298ZM8.33756 1.72723C9.95369 1.72723 11.2321 3.00414 11.2321 4.54062H12.9129C12.9129 2.04127 10.8469 0.0465099 8.33756 0.0465099V1.72723ZM14.9671 12.7142C14.9671 12.8512 14.904 13.0578 14.6307 13.327C14.3544 13.5992 13.9114 13.883 13.2963 14.1393C12.0698 14.6504 10.3171 14.9863 8.33755 14.9863V16.667C10.4835 16.667 12.4658 16.3062 13.9428 15.6907C14.6794 15.3838 15.3305 14.9969 15.8102 14.5244C16.2928 14.0489 16.6478 13.4367 16.6478 12.7142H14.9671ZM8.33755 14.9863C6.35802 14.9863 4.60532 14.6504 3.37877 14.1393C2.76366 13.883 2.32074 13.5992 2.04445 13.327C1.77111 13.0578 1.70804 12.8512 1.70804 12.7142H0.0273144C0.0273144 13.4367 0.382285 14.0489 0.864944 14.5244C1.34464 14.9969 1.99566 15.3838 2.73234 15.6907C4.20935 16.3062 6.19158 16.667 8.33755 16.667V14.9863ZM1.70804 12.7142C1.70804 12.5461 1.80906 12.2609 2.27496 11.9018C2.73243 11.5492 3.44035 11.2115 4.36532 10.9488L3.90618 9.33205C2.85837 9.62961 1.93226 10.0439 1.24889 10.5707C0.573944 11.0909 0.0273144 11.8125 0.0273144 12.7142H1.70804ZM12.3098 10.9488C13.2348 11.2115 13.9427 11.5492 14.4002 11.9018C14.866 12.2609 14.9671 12.5461 14.9671 12.7142H16.6478C16.6478 11.8125 16.1012 11.0909 15.4262 10.5707C14.7428 10.0439 13.8167 9.62961 12.7689 9.33205L12.3098 10.9488Z" fill="black"/>
</svg>
