<svg width="19" height="19" viewBox="0 0 19 19" fill="none" xmlns="http://www.w3.org/2000/svg">
<path d="M8.8187 1.77122C9.10537 1.48455 9.57016 1.48455 9.85683 1.77122L11.9507 3.86511C12.2374 4.15178 12.2374 4.61657 11.9507 4.90324L9.85683 6.99714C9.57016 7.28381 9.10537 7.28381 8.8187 6.99714L6.7248 4.90324C6.43813 4.61657 6.43813 4.15178 6.72481 3.86511L8.8187 1.77122Z" stroke="black" stroke-width="1.68072"/>
<path d="M13.7719 6.72438C14.0585 6.43771 14.5233 6.43771 14.81 6.72438L16.9039 8.81827C17.1906 9.10494 17.1906 9.56973 16.9039 9.8564L14.81 11.9503C14.5233 12.237 14.0585 12.237 13.7719 11.9503L11.678 9.8564C11.3913 9.56973 11.3913 9.10494 11.678 8.81827L13.7719 6.72438Z" stroke="black" stroke-width="1.68072"/>
<path d="M3.86554 6.72438C4.15221 6.43771 4.617 6.43771 4.90367 6.72438L6.99757 8.81827C7.28424 9.10495 7.28424 9.56973 6.99756 9.8564L4.90367 11.9503C4.617 12.237 4.15221 12.237 3.86554 11.9503L1.77164 9.8564C1.48497 9.56973 1.48497 9.10494 1.77164 8.81827L3.86554 6.72438Z" stroke="black" stroke-width="1.68072"/>
<path d="M8.8187 11.6775C9.10537 11.3909 9.57016 11.3909 9.85683 11.6775L11.9507 13.7714C12.2374 14.0581 12.2374 14.5229 11.9507 14.8096L9.85683 16.9035C9.57016 17.1901 9.10537 17.1901 8.8187 16.9035L6.7248 14.8096C6.43813 14.5229 6.43813 14.0581 6.7248 13.7714L8.8187 11.6775Z" stroke="black" stroke-width="1.68072"/>
</svg>
