<svg width="18" height="18" viewBox="0 0 18 18" fill="none" xmlns="http://www.w3.org/2000/svg">
<path d="M8.8187 1.77116C9.10537 1.48448 9.57016 1.48448 9.85683 1.77116L11.9507 3.86505C12.2374 4.15172 12.2374 4.61651 11.9507 4.90318L9.85683 6.99708C9.57016 7.28375 9.10537 7.28375 8.8187 6.99708L6.7248 4.90318C6.43813 4.61651 6.43813 4.15172 6.72481 3.86505L8.8187 1.77116Z" stroke="#FFE1DD" stroke-width="1.68072"/>
<path d="M13.7719 6.72432C14.0585 6.43764 14.5233 6.43764 14.81 6.72432L16.9039 8.81821C17.1906 9.10488 17.1906 9.56967 16.9039 9.85634L14.81 11.9502C14.5233 12.2369 14.0585 12.2369 13.7719 11.9502L11.678 9.85634C11.3913 9.56967 11.3913 9.10488 11.678 8.81821L13.7719 6.72432Z" stroke="#FFE1DD" stroke-width="1.68072"/>
<path d="M3.86554 6.72432C4.15221 6.43764 4.617 6.43764 4.90367 6.72432L6.99757 8.81821C7.28424 9.10488 7.28424 9.56967 6.99756 9.85634L4.90367 11.9502C4.617 12.2369 4.15221 12.2369 3.86554 11.9502L1.77164 9.85634C1.48497 9.56967 1.48497 9.10488 1.77164 8.81821L3.86554 6.72432Z" stroke="#FFE1DD" stroke-width="1.68072"/>
<path d="M8.8187 11.6775C9.10537 11.3908 9.57016 11.3908 9.85683 11.6775L11.9507 13.7714C12.2374 14.058 12.2374 14.5228 11.9507 14.8095L9.85683 16.9034C9.57016 17.1901 9.10537 17.1901 8.8187 16.9034L6.7248 14.8095C6.43813 14.5228 6.43813 14.058 6.7248 13.7714L8.8187 11.6775Z" stroke="#FFE1DD" stroke-width="1.68072"/>
</svg>
