<svg width="17" height="17" viewBox="0 0 17 17" fill="none" xmlns="http://www.w3.org/2000/svg">
<path d="M8.33707 10.5541L7.78564 11.1883C8.10184 11.4632 8.57229 11.4632 8.88849 11.1883L8.33707 10.5541ZM4.36483 11.2788C4.81129 11.152 5.07044 10.6873 4.94366 10.2408C4.81687 9.79434 4.35215 9.53519 3.90569 9.66198L4.36483 11.2788ZM12.7684 9.66198C12.322 9.53519 11.8573 9.79434 11.7305 10.2408C11.6037 10.6873 11.8628 11.152 12.3093 11.2788L12.7684 9.66198ZM11.2316 4.87054C11.2316 5.27946 11.0694 5.79492 10.7493 6.38625C10.4354 6.96633 10.0063 7.55298 9.55991 8.08664C9.11591 8.61751 8.66949 9.07872 8.33299 9.4079C8.16525 9.57199 8.0261 9.70205 7.92987 9.7902C7.88179 9.83425 7.84452 9.86776 7.81986 9.88974C7.80753 9.90072 7.79837 9.90882 7.79258 9.91391C7.78969 9.91645 7.78765 9.91824 7.78648 9.91926C7.7859 9.91978 7.78554 9.92009 7.78539 9.92022C7.78532 9.92028 7.78531 9.92029 7.78535 9.92026C7.78537 9.92024 7.78544 9.92018 7.78545 9.92017C7.78554 9.92009 7.78564 9.92 8.33707 10.5541C8.88849 11.1883 8.88862 11.1882 8.88877 11.188C8.88883 11.188 8.88899 11.1879 8.88913 11.1877C8.88939 11.1875 8.88972 11.1872 8.8901 11.1869C8.89086 11.1862 8.89185 11.1854 8.89306 11.1843C8.89549 11.1822 8.8988 11.1793 8.90298 11.1756C8.91133 11.1682 8.92314 11.1578 8.93816 11.1444C8.96821 11.1176 9.01119 11.079 9.06523 11.0295C9.17326 10.9305 9.3259 10.7878 9.50831 10.6093C9.87211 10.2534 10.3594 9.75047 10.8492 9.16492C11.3366 8.58216 11.8411 7.90015 12.2275 7.18619C12.6078 6.48349 12.9124 5.67954 12.9124 4.87054H11.2316ZM8.33707 10.5541C8.88849 9.92 8.8886 9.92009 8.88868 9.92017C8.88869 9.92018 8.88876 9.92024 8.88879 9.92026C8.88883 9.92029 8.88881 9.92028 8.88874 9.92022C8.8886 9.92009 8.88823 9.91978 8.88765 9.91926C8.88648 9.91824 8.88444 9.91645 8.88155 9.91391C8.87577 9.90882 8.8666 9.90072 8.85427 9.88974C8.82961 9.86776 8.79234 9.83425 8.74426 9.7902C8.64804 9.70205 8.50888 9.57199 8.34114 9.4079C8.00464 9.07872 7.55822 8.61751 7.11422 8.08664C6.66788 7.55298 6.23871 6.96633 5.92479 6.38625C5.60477 5.79492 5.44249 5.27946 5.44249 4.87054H3.76177C3.76177 5.67954 4.06635 6.48349 4.44664 7.18619C4.83301 7.90015 5.33758 8.58216 5.82498 9.16492C6.31471 9.75047 6.80202 10.2534 7.16582 10.6093C7.34824 10.7878 7.50087 10.9305 7.6089 11.0295C7.66295 11.079 7.70592 11.1176 7.73597 11.1444C7.751 11.1578 7.7628 11.1682 7.77116 11.1756C7.77533 11.1793 7.77865 11.1822 7.78107 11.1843C7.78228 11.1854 7.78327 11.1862 7.78403 11.1869C7.78442 11.1872 7.78474 11.1875 7.78501 11.1877C7.78514 11.1879 7.7853 11.188 7.78537 11.188C7.78551 11.1882 7.78564 11.1883 8.33707 10.5541ZM5.44249 4.87054C5.44249 3.33407 6.72093 2.05716 8.33707 2.05716V0.376435C5.82771 0.376435 3.76177 2.3712 3.76177 4.87054H5.44249ZM8.33707 2.05716C9.95321 2.05716 11.2316 3.33407 11.2316 4.87054H12.9124C12.9124 2.3712 10.8464 0.376435 8.33707 0.376435V2.05716ZM14.9666 13.0441C14.9666 13.1811 14.9035 13.3877 14.6302 13.6569C14.3539 13.9291 13.911 14.2129 13.2959 14.4692C12.0693 14.9803 10.3166 15.3162 8.33707 15.3162V16.9969C10.483 16.9969 12.4653 16.6361 13.9423 16.0207C14.679 15.7137 15.33 15.3268 15.8097 14.8543C16.2923 14.3788 16.6473 13.7666 16.6473 13.0441H14.9666ZM8.33707 15.3162C6.35754 15.3162 4.60483 14.9803 3.37828 14.4692C2.76317 14.2129 2.32025 13.9291 2.04396 13.6569C1.77063 13.3877 1.70755 13.1811 1.70755 13.0441H0.0268261C0.0268261 13.7666 0.381797 14.3788 0.864456 14.8543C1.34415 15.3268 1.99518 15.7137 2.73185 16.0207C4.20886 16.6361 6.19109 16.9969 8.33707 16.9969V15.3162ZM1.70755 13.0441C1.70755 12.876 1.80857 12.5909 2.27447 12.2317C2.73194 11.8791 3.43986 11.5414 4.36483 11.2788L3.90569 9.66198C2.85789 9.95954 1.93177 10.3738 1.2484 10.9006C0.573455 11.4208 0.0268261 12.1425 0.0268261 13.0441H1.70755ZM12.3093 11.2788C13.2343 11.5414 13.9422 11.8791 14.3997 12.2317C14.8656 12.5909 14.9666 12.876 14.9666 13.0441H16.6473C16.6473 12.1425 16.1007 11.4208 15.4257 10.9006C14.7424 10.3738 13.8162 9.95954 12.7684 9.66198L12.3093 11.2788Z" fill="black"/>
</svg>
