<svg width="17" height="17" viewBox="0 0 17 17" fill="none" xmlns="http://www.w3.org/2000/svg">
<path d="M10.3186 10.3616C9.2247 11.4556 7.45108 11.4556 6.35714 10.3616M10.3186 10.3616C11.4126 9.26771 11.4126 7.49409 10.3186 6.40015M10.3186 10.3616L13.2898 13.3328M6.35714 10.3616C5.2632 9.26771 5.2632 7.49409 6.35714 6.40015M6.35714 10.3616L3.38601 13.3328M6.35714 6.40015C7.45108 5.30621 9.2247 5.30621 10.3186 6.40015M6.35714 6.40015L3.38601 3.42902M10.3186 6.40015L13.2898 3.42902M13.6199 13.6629C10.7027 16.5801 5.97306 16.5801 3.05589 13.6629C0.13872 10.7457 0.13872 6.01607 3.05589 3.0989C5.97306 0.181727 10.7027 0.181727 13.6199 3.0989C16.5371 6.01607 16.5371 10.7457 13.6199 13.6629Z" stroke="black" stroke-width="1.68072" stroke-linecap="round" stroke-linejoin="round"/>
</svg>
