<svg width="17" height="16" viewBox="0 0 17 16" fill="none" xmlns="http://www.w3.org/2000/svg">
<path d="M14.147 6.37611V2.64117C14.147 1.7244 13.4038 0.981201 12.487 0.981201H2.52716C1.61038 0.981201 0.867188 1.7244 0.867188 2.64118V9.13672C0.867188 10.0535 1.61038 10.7967 2.52716 10.7967H3.82627V14.261L7.29056 10.7967H7.50708M11.7923 12.9258L13.9575 15.091V12.9258H14.147C15.0637 12.9258 15.8069 12.1826 15.8069 11.2658V8.45108C15.8069 7.5343 15.0637 6.79111 14.147 6.79111H9.16705C8.25027 6.79111 7.50708 7.5343 7.50708 8.45108V11.2658C7.50708 12.1826 8.25027 12.9258 9.16705 12.9258H11.7923Z" stroke="black" stroke-width="1.68072" stroke-linecap="round" stroke-linejoin="round"/>
</svg>
