<svg width="17" height="17" viewBox="0 0 17 17" fill="none" xmlns="http://www.w3.org/2000/svg">
<path d="M14.1475 7.04616V3.31122C14.1475 2.39444 13.4043 1.65125 12.4875 1.65125H2.52765C1.61087 1.65125 0.867676 2.39444 0.867676 3.31122V9.80677C0.867676 10.7235 1.61087 11.4667 2.52765 11.4667H3.82676V14.931L7.29105 11.4667H7.50757M11.7928 13.5958L13.958 15.761V13.5958H14.1475C15.0642 13.5958 15.8074 12.8526 15.8074 11.9359V9.12112C15.8074 8.20434 15.0642 7.46115 14.1475 7.46115H9.16754C8.25076 7.46115 7.50757 8.20435 7.50757 9.12112V11.9359C7.50757 12.8526 8.25076 13.5958 9.16754 13.5958H11.7928Z" stroke="black" stroke-width="1.68072" stroke-linecap="round" stroke-linejoin="round"/>
</svg>
