<svg width="19" height="20" viewBox="0 0 19 20" fill="none" xmlns="http://www.w3.org/2000/svg">
<path d="M1.8667 14.4588L1.86687 5.5442C1.86688 4.87956 2.51054 4.40495 3.14548 4.60139V4.60139C5.22407 5.24447 7.47131 5.24447 9.5499 4.60139C11.8221 3.89842 14.2892 3.96571 16.5129 4.7913L16.8029 4.89896L16.8027 14.8426C16.8027 14.9925 16.6532 15.0964 16.5127 15.0442V15.0442C14.289 14.2186 11.8219 14.1514 9.54971 14.8543C7.47112 15.4974 5.22388 15.4974 3.14529 14.8543L1.8667 14.4588Z" stroke="black" stroke-width="1.68" stroke-linejoin="round"/>
<path d="M11.2017 9.72008C11.2017 10.7512 10.3658 11.5871 9.3347 11.5871C8.30358 11.5871 7.4677 10.7512 7.4677 9.72008C7.4677 8.68896 8.30358 7.85308 9.3347 7.85308C10.3658 7.85308 11.2017 8.68896 11.2017 9.72008Z" stroke="black" stroke-width="1.68" stroke-linejoin="round"/>
</svg>
