<svg width="20" height="20" viewBox="0 0 20 20" fill="none" xmlns="http://www.w3.org/2000/svg">
<path d="M7.29652 3.54624L8.30602 2.09551C8.49297 1.82685 8.79955 1.66669 9.12685 1.66669H10.4573C10.7834 1.66669 11.089 1.82567 11.2762 2.09268L12.2745 3.51695M7.29652 3.54624C7.00748 3.95861 6.52702 4.16068 6.01707 4.12465M7.29652 3.54624C7.00607 3.95762 6.52702 4.16235 6.01707 4.12465M6.01707 4.12465L4.22798 4.01233C3.90714 3.99219 3.59617 4.12752 3.39225 4.37605L2.55379 5.39794C2.33759 5.66143 2.27048 6.0169 2.37575 6.34108L2.89413 7.93755M2.89413 7.93755C2.96823 8.17783 2.97771 8.43524 2.92468 8.67836M2.89413 7.93755C2.96929 8.1774 2.97842 8.4343 2.92433 8.68085M2.92468 8.67836C2.87095 8.91859 2.75575 9.14543 2.58471 9.32912M2.92468 8.67836L2.92433 8.68085M2.58471 9.32912L1.40725 10.5955C1.17885 10.8412 1.08882 11.185 1.1675 11.511L1.46105 12.7275C1.53947 13.0524 1.77512 13.3168 2.08902 13.4318L3.70682 14.0247C3.94424 14.1166 4.14934 14.266 4.30458 14.4541M2.58471 9.32912C2.7568 9.14694 2.87095 8.92083 2.92433 8.68085M4.30458 14.4541C4.45876 14.6427 4.56377 14.8704 4.60451 15.117M4.30458 14.4541C4.46016 14.6427 4.56553 14.8698 4.60451 15.117M4.30458 14.4541L4.30212 14.4514C4.29194 14.439 4.28105 14.4262 4.27051 14.4142M4.60451 15.117L4.88004 16.8094C4.9333 17.1366 5.14526 17.4162 5.44593 17.5558L6.64518 18.1126C6.93625 18.2477 7.27449 18.2349 7.55454 18.0783L9.07504 17.2276M9.07504 17.2276C9.29595 17.1035 9.5425 17.0413 9.78905 17.041M9.07504 17.2276C9.16249 17.1778 9.25416 17.1381 9.34828 17.1083C9.49122 17.063 9.64013 17.0407 9.78905 17.041M9.78905 17.041C9.91724 17.0412 10.0454 17.0582 10.1705 17.0917C10.2867 17.1228 10.3998 17.1682 10.5069 17.2276M9.78905 17.041C10.0366 17.0406 10.2846 17.1028 10.5069 17.2276M10.5069 17.2276L12.1019 18.091C12.3831 18.2433 12.7203 18.2518 13.0089 18.114L14.2026 17.5438C14.5022 17.4007 14.7113 17.1183 14.7605 16.7899L15.0069 15.1483M15.0069 15.1483C15.0459 14.9004 15.1495 14.671 15.3034 14.4807M15.0069 15.1483C15.0445 14.8998 15.1488 14.6708 15.3034 14.4807M15.3034 14.4807C15.4561 14.2923 15.6588 14.1423 15.8948 14.0495M15.3034 14.4807C15.4558 14.2916 15.6577 14.1411 15.8948 14.0495M15.8948 14.0495L17.5319 13.4079C17.8399 13.2872 18.0683 13.022 18.1419 12.6995L18.4241 11.464C18.4976 11.1423 18.4077 10.8052 18.1839 10.5628L16.9976 9.27832M16.9976 9.27832C16.8234 9.09399 16.7019 8.87381 16.6429 8.6398M16.9976 9.27832C16.9158 9.19223 16.8455 9.09812 16.7883 8.99833C16.7229 8.88502 16.6741 8.7644 16.6429 8.6398M16.6429 8.6398C16.5849 8.40746 16.5884 8.16126 16.6618 7.92296L17.1739 6.28169C17.2743 5.95989 17.2058 5.60916 16.9917 5.34878L16.1767 4.35749C15.9704 4.1066 15.6551 3.97152 15.3312 3.99525L13.5645 4.12465M13.5645 4.12465C13.311 4.14256 13.0616 4.09425 12.8396 3.99034M13.5645 4.12465C13.3106 4.14359 13.0616 4.0949 12.8396 3.99034M12.8396 3.99034C12.6163 3.8851 12.4203 3.72327 12.2745 3.51695M12.8396 3.99034C12.6159 3.88549 12.4196 3.72409 12.2745 3.51695M2.92433 8.68085L2.92503 8.6772M12.6131 10.0089C12.6131 11.563 11.3249 12.8228 9.73601 12.8228C8.14715 12.8228 6.85892 11.563 6.85892 10.0089C6.85892 8.45474 8.14715 7.19491 9.73601 7.19491C11.3249 7.19491 12.6131 8.45474 12.6131 10.0089Z" stroke="black" stroke-width="1.8"/>
</svg>
