<svg width="19" height="20" viewBox="0 0 19 20" fill="none" xmlns="http://www.w3.org/2000/svg">
<path d="M9.10139 17.2058H4.43389C3.40277 17.2058 2.56689 16.3699 2.56689 15.3388L2.56697 4.13683C2.56697 3.10571 3.40286 2.26984 4.43397 2.26984H12.8357C13.8668 2.26984 14.7027 3.10572 14.7027 4.13684V7.87084M5.83444 6.00384H11.4354M5.83444 8.80434H11.4354M11.4354 12.5025V14.793C11.4354 15.9248 12.6423 16.9629 13.7741 16.9629C14.906 16.9629 16.1029 15.9248 16.1029 14.793V11.8998C16.1029 11.3006 15.7585 10.6925 14.9922 10.6925C14.1725 10.6925 13.7741 11.3005 13.7741 11.8998V14.6724M5.83444 11.6048H8.63494" stroke="black" stroke-width="1.68" stroke-linecap="round" stroke-linejoin="round"/>
</svg>
