<svg width="17" height="18" viewBox="0 0 17 18" fill="none" xmlns="http://www.w3.org/2000/svg">
<path d="M10.3182 11.0363C9.22421 12.1302 7.45059 12.1302 6.35665 11.0363M10.3182 11.0363C11.4121 9.94236 11.4121 8.16874 10.3182 7.0748M10.3182 11.0363L13.2893 14.0074M6.35665 11.0363C5.26271 9.94236 5.26271 8.16874 6.35665 7.0748M6.35665 11.0363L3.38553 14.0074M6.35665 7.0748C7.45059 5.98086 9.22421 5.98086 10.3182 7.0748M6.35665 7.0748L3.38553 4.10367M10.3182 7.0748L13.2893 4.10367M13.6194 14.3376C10.7022 17.2547 5.97257 17.2547 3.0554 14.3376C0.138231 11.4204 0.138231 6.69072 3.0554 3.77355C5.97257 0.856379 10.7022 0.856379 13.6194 3.77355C16.5366 6.69072 16.5366 11.4204 13.6194 14.3376Z" stroke="black" stroke-width="1.68072" stroke-linecap="round" stroke-linejoin="round"/>
</svg>
